<?xml version="1.0" encoding="UTF-8" standalone="no"?>
<svg
   xmlns:dc="http://purl.org/dc/elements/1.1/"
   xmlns:cc="http://creativecommons.org/ns#"
   xmlns:rdf="http://www.w3.org/1999/02/22-rdf-syntax-ns#"
   xmlns:svg="http://www.w3.org/2000/svg"
   xmlns="http://www.w3.org/2000/svg"
   xmlns:sodipodi="http://sodipodi.sourceforge.net/DTD/sodipodi-0.dtd"
   xmlns:inkscape="http://www.inkscape.org/namespaces/inkscape"
   viewBox="0 0 20.678461 25.799999"
   width="20.678"
   height="25.8"
   version="1.1"
   id="svg44"
   sodipodi:docname="stalledUP.svg"
   inkscape:version="1.0.1 (3bc2e813f5, 2020-09-07)">
  <metadata
     id="metadata50">
    <rdf:RDF>
      <cc:Work
         rdf:about="">
        <dc:format>image/svg+xml</dc:format>
        <dc:type
           rdf:resource="http://purl.org/dc/dcmitype/StillImage" />
      </cc:Work>
    </rdf:RDF>
  </metadata>
  <defs
     id="defs48" />
  <sodipodi:namedview
     pagecolor="#ffffff"
     bordercolor="#666666"
     borderopacity="1"
     objecttolerance="10"
     gridtolerance="10"
     guidetolerance="10"
     inkscape:pageopacity="0"
     inkscape:pageshadow="2"
     inkscape:window-width="1610"
     inkscape:window-height="1233"
     id="namedview46"
     showgrid="false"
     inkscape:zoom="39.069769"
     inkscape:cx="10.339"
     inkscape:cy="12.9"
     inkscape:window-x="0"
     inkscape:window-y="0"
     inkscape:window-maximized="0"
     inkscape:current-layer="svg44"
     inkscape:document-rotation="0" />
  <path
     d="M20.6 12.8c-.2.6-.6.8-1.1.7h-5.2v9c0 .4-.2.7-.4.9-.2.3-.5.4-.9.4H7.8c-.4 0-.6-.1-.9-.4-.3-.2-.4-.5-.4-.9v-8.8H1.3c-.5 0-.9-.3-1.2-.8-.2-.7-.1-1.1.3-1.5l9-9c.2-.3.5-.4.9-.4s.6.1.9.4l9 9c.4.4.6.9.4 1.4z"
     id="path42" />
  <path
     style="fill:#b3b3b3;stroke-width:0.0255952"
     d="M 7.5747141,23.773091 C 7.4010609,23.744022 7.2479372,23.670125 7.0725404,23.530743 6.6499108,23.194895 6.5655011,23.058768 6.5256286,22.648739 6.511018,22.498494 6.5007669,20.626973 6.5003745,18.038244 l -6.604e-4,-4.35759 H 3.8149104 c -2.6166254,0 -2.6890322,-0.0013 -2.85130782,-0.05143 C 0.66770748,13.537834 0.40279851,13.323764 0.18788662,13.002381 0.07203144,12.829128 0.01505754,12.549903 0.02899271,12.223652 0.03804957,12.011613 0.05091184,11.954416 0.12439638,11.799404 0.2059309,11.627412 0.39753211,11.43166 4.9094337,6.9107141 8.3239397,3.4893634 9.6445403,2.181838 9.7375117,2.1304384 9.9145209,2.0325784 10.221968,1.9895466 10.479282,2.0266165 c 0.400313,0.057671 0.0076,-0.3104085 5.15304,4.8297727 3.526436,3.5228298 4.696965,4.7070698 4.792028,4.8481598 0.151901,0.225448 0.22953,0.460299 0.22953,0.694394 0,0.410335 -0.255219,0.882914 -0.555267,1.028165 l -0.115976,0.05614 -2.850646,-0.0054 -2.850647,-0.0054 -0.0067,4.655559 -0.0067,4.655559 -0.108296,0.215624 c -0.124483,0.247851 -0.415697,0.584831 -0.576141,0.666684 -0.242212,0.123567 -0.257518,0.124147 -3.193242,0.120902 -1.5133182,-0.0017 -2.7802824,-0.0079 -2.8154759,-0.01375 z"
     id="path52"
     transform="matrix(1.0000223,0,0,1.0000223,0,-2.8802818e-4)" />
  <path
     style="fill:#808080;stroke-width:0.0255952"
     d="M 7.4320384,23.719094 C 7.1660002,23.626124 6.7431344,23.262003 6.638412,23.035714 6.605838,22.965324 6.567151,22.832872 6.552442,22.741369 6.534936,22.632475 6.525621,21.522759 6.525478,19.529166 6.52535,17.853958 6.517628,15.852731 6.508298,15.081994 l -0.016961,-1.401339 -1.8066741,-0.0027 c -0.9936708,-0.0015 -2.2277002,-0.01012 -2.7422877,-0.0192 l -0.9356135,-0.0165 -0.19854517,-0.09816 C 0.46689676,13.375366 0.16797206,13.029993 0.08644086,12.710179 0.05563573,12.589342 0.04723139,12.467618 0.05463131,12.249464 0.06343935,11.989799 0.0731402,11.936699 0.13274083,11.821912 0.23415654,11.626592 1.1911288,10.651453 5.7097464,6.139035 L 9.7119167,2.1423554 9.899786,2.0853958 c 0.158952,-0.048192 0.230272,-0.055213 0.463345,-0.04561 0.342069,0.014094 0.379603,0.033864 0.820739,0.4322931 0.375997,0.3395976 7.391991,7.3361319 8.484808,8.4612761 0.679666,0.699771 0.758984,0.790498 0.847282,0.969158 0.08744,0.176923 0.0985,0.221761 0.107944,0.437759 0.0087,0.199645 6.24e-4,0.271436 -0.04758,0.421369 -0.101435,0.315463 -0.280797,0.545496 -0.520945,0.668115 l -0.105362,0.0538 -2.83071,-0.01385 -2.83071,-0.01385 -0.01676,0.500442 c -0.0092,0.275244 -0.01676,2.370529 -0.01676,4.656192 v 4.155749 l -0.08669,0.172141 c -0.17788,0.353224 -0.475178,0.677672 -0.700513,0.764486 -0.114669,0.04418 -0.282434,0.04714 -3.01369,0.0532 -2.7127518,0.006 -2.9003232,0.0036 -3.0221406,-0.03897 z"
     id="path16"
     transform="matrix(1.0000223,0,0,1.0000223,0,-2.8802818e-4)" />
</svg>
