<?xml version="1.0" encoding="UTF-8" standalone="no"?>
<svg
   xmlns:dc="http://purl.org/dc/elements/1.1/"
   xmlns:cc="http://creativecommons.org/ns#"
   xmlns:rdf="http://www.w3.org/1999/02/22-rdf-syntax-ns#"
   xmlns:svg="http://www.w3.org/2000/svg"
   xmlns="http://www.w3.org/2000/svg"
   xmlns:sodipodi="http://sodipodi.sourceforge.net/DTD/sodipodi-0.dtd"
   xmlns:inkscape="http://www.inkscape.org/namespaces/inkscape"
   viewBox="0 0 20.678461 25.799999"
   width="20.678"
   height="25.8"
   version="1.1"
   id="svg22"
   sodipodi:docname="stalledDL.svg"
   inkscape:version="1.0.1 (3bc2e813f5, 2020-09-07)">
  <metadata
     id="metadata28">
    <rdf:RDF>
      <cc:Work
         rdf:about="">
        <dc:format>image/svg+xml</dc:format>
        <dc:type
           rdf:resource="http://purl.org/dc/dcmitype/StillImage" />
      </cc:Work>
    </rdf:RDF>
  </metadata>
  <defs
     id="defs26" />
  <sodipodi:namedview
     pagecolor="#ffffff"
     bordercolor="#666666"
     borderopacity="1"
     objecttolerance="10"
     gridtolerance="10"
     guidetolerance="10"
     inkscape:pageopacity="0"
     inkscape:pageshadow="2"
     inkscape:window-width="1809"
     inkscape:window-height="1276"
     id="namedview24"
     showgrid="false"
     inkscape:zoom="39.069769"
     inkscape:cx="10.339"
     inkscape:cy="12.9"
     inkscape:window-x="0"
     inkscape:window-y="0"
     inkscape:window-maximized="0"
     inkscape:current-layer="svg22"
     inkscape:document-rotation="0" />
  <path
     d="M20.2 14.4l-9 9c-.3.3-.5.4-.9.4s-.7-.1-.9-.4l-9-9c-.4-.4-.5-.8-.3-1.5.3-.5.7-.8 1.2-.8h5.2V3.3c0-.4.1-.7.4-.9.3-.3.5-.4.9-.4H13c.4 0 .7.1.9.4.2.2.4.5.4.9v9h5.2c.5-.1.9.1 1.1.7.2.5 0 1-.4 1.4z"
     id="path20" />
  <path
     style="fill:#b3b3b3;stroke-width:0.0255952"
     d="M 9.9059634,23.73861 C 9.8296834,23.71739 9.7317814,23.67784 9.6884039,23.65073 9.6450264,23.623612 7.5003234,21.490189 4.9223974,18.90979 0.27034702,14.253276 0.23452265,14.216643 0.13685102,14.016264 0.04724217,13.832426 0.0375417,13.791941 0.02836633,13.5635 0.01408785,13.208007 0.07165028,12.961922 0.21691771,12.757423 c 0.23654596,-0.332995 0.5626728,-0.564683 0.87940699,-0.62475 0.088101,-0.01671 1.0867973,-0.02613 2.7705735,-0.02613 H 6.4997141 L 6.5004078,7.7489581 C 6.5007891,5.3522841 6.5113436,3.2855362 6.523862,3.1561852 6.5591906,2.7911431 6.6321562,2.6544218 6.9332785,2.3890312 7.0678688,2.2704119 7.2413361,2.1421885 7.3187617,2.1040905 l 0.1407738,-0.069269 h 2.9567915 2.956791 l 0.169201,0.083299 c 0.267731,0.1318058 0.588856,0.5258933 0.686724,0.8427548 0.05096,0.1649712 0.05162,0.2266179 0.05162,4.7599324 v 4.5927973 l 2.836081,-0.0036 2.836081,-0.0036 0.125488,0.05899 c 0.231912,0.109011 0.392094,0.316177 0.514445,0.665343 0.05731,0.163554 0.06495,0.221097 0.05624,0.423728 -0.0092,0.214178 -0.01964,0.254054 -0.120551,0.460714 l -0.110471,0.226242 -4.738743,4.740519 c -5.396044,5.398065 -4.827035,4.877169 -5.340232,4.888693 -0.202157,0.0045 -0.337783,-0.0055 -0.4330366,-0.03197 z"
     id="path30"
     transform="matrix(1.0000223,0,0,1.0000223,0,-2.8802818e-4)" />
  <path
     style="fill:#808080;stroke-width:0.0255952"
     d="M 10.211024,23.752465 C 10.051562,23.742539 9.8780718,23.715929 9.8109293,23.691097 9.7080426,23.653045 9.1082359,23.063345 5.2703711,19.227049 2.8382648,16.795937 0.70606362,14.653838 0.53214611,14.466829 0.32848466,14.247836 0.18653946,14.070186 0.13335328,13.967721 0.05252175,13.811998 0.05079162,13.801589 0.0516019,13.475893 0.05231096,13.190883 0.06081932,13.121884 0.11091835,12.994865 0.21008292,12.743448 0.49484599,12.429297 0.765076,12.273198 1.0096035,12.131946 0.92244435,12.136405 3.8249423,12.116672 L 6.5125121,12.0984 6.5143524,8.064825 C 6.5163104,3.7736288 6.5285738,3.0366301 6.6013877,2.8348214 6.6546598,2.6871744 6.8203892,2.4981493 7.0720646,2.2979843 7.4231906,2.0187224 7.0372784,2.0476195 10.415617,2.0476195 h 2.95812 l 0.133524,0.067261 c 0.200111,0.1008033 0.496327,0.4150854 0.617692,0.6553654 0.08344,0.1651952 0.103221,0.2350305 0.119624,0.4223214 0.01081,0.1234185 0.02047,2.2296083 0.02147,4.6804217 l 0.0018,4.456024 2.821917,-0.01243 2.821917,-0.01243 0.155065,0.07828 c 0.182536,0.09215 0.313661,0.228654 0.417807,0.434965 0.187918,0.372265 0.203254,0.679802 0.05206,1.043995 l -0.08436,0.203192 -3.636105,3.653926 c -4.739593,4.762821 -5.79341,5.795421 -6.093247,5.970566 -0.134573,0.07861 -0.179003,0.08411 -0.511905,0.06339 z"
     id="path24"
     transform="matrix(1.0000223,0,0,1.0000223,0,-2.8802818e-4)" />
</svg>
